<?xml version="1.0" encoding="utf-8"?>
<!-- Generator: Adobe Illustrator 22.0.0, SVG Export Plug-In . SVG Version: 6.00 Build 0)  -->
<svg version="1.1" id="Layer_1" xmlns="http://www.w3.org/2000/svg" xmlns:xlink="http://www.w3.org/1999/xlink" x="0px" y="0px"
	 viewBox="0 0 154 70" style="enable-background:new 0 0 154 70;" xml:space="preserve">
<style type="text/css">
	.st0{fill:#0095DB;}
</style>
<path class="st0" d="M129.4,51.1c-0.7-0.7-1.6-0.4-2.4,0.2c-4.2,3.2-8.7,6.2-13.7,8c-2.5,0.9-5.4,1.2-7.2-1.1
	c-1.3-1.8-1.8-4.1-1.6-6.3c0.4-2.8,1.2-5.5,2.5-8l6.7-14.8l14.1-2c0.4,0,0.7-0.2,1-0.5c0.3-0.3,0.4-0.7,0.3-1.1
	c0-1.1-0.2-2.2-0.5-3.3v-0.1c-0.2-0.3-0.4-0.5-0.7-0.7c-0.3-0.2-0.6-0.2-1-0.2l-10.2,1.1l3.6-7.8c0.1-0.2,0.2-0.5,0.2-0.8
	c0-0.3,0-0.6-0.1-0.8c-0.1-0.3-0.2-0.5-0.4-0.7c-0.2-0.2-0.4-0.3-0.7-0.4c-1.6-0.3-3.2-0.4-4.9-0.3c-1.9,0-2.6,2.4-2.6,2.4
	s-1.8,4.1-4.4,9.5l-16.1,1.8c-0.2,0-0.4,0.1-0.6,0.3c-0.2,0.2-0.3,0.3-0.3,0.6c0,0.8,0.2,1.6,0.7,2.3c0.4,0.9,0.9,1.7,1.5,2.5
	c0.3,0.4,0.7,0.7,1.2,0.9c0.5,0.1,1.1,0.1,1.6,0l8.3-1.2l-0.7,1.2c0,0-6.6,9.6-12.8,17.3l-6.1,7.7c0-0.8,0.2-1.6,0.3-2.3l0.3-1.3
	c0.8-3.2,1.6-6.5,2.4-9.7c0.7-2.8-1.3-5.2-3.7-6.3c-1-0.5-2.1-0.6-3.2-0.4c-1,0.3-2,0.7-2.8,1.3c-2.4,1.3-4.6,2.9-6.7,4.6
	c-0.8,0.8-1.7,1.5-2.7,2.2c-0.1,0-0.1,0-0.2,0c0,0-0.1,0-0.1-0.1c0,0-0.1-0.1-0.1-0.1c-0.4-1.6,0.9-3.1,0.3-4.8
	c-0.5-1.1-1.3-2-2.4-2.6c-1.1-0.7-2.3-1.3-3.5-1.8c-0.3-0.1-0.5-0.1-0.8-0.1c-1.1,0-1,0.6-1.3,1.4c-0.6,1.8-0.8,2.8-1.3,3.5
	c0,0-8.6,12.6-26.6,20.1c-6.3,2.6-12.9,2.3-18.5-2.7c-1.8-1.7-3.2-3.8-3.9-6.2c-2.4-7.5,2.1-15.3,6.9-20.9c4.2-5,10.3-9.1,16.9-9.3
	c0.9,0,4.1,0.2,4.1,1.6c0,2.2,0.3,4.7,2.1,6.2c1.3,1.2,3.1,2,4.9,2.1c1.8,0.1,3.6-0.4,5.1-1.5c2.1-1.6,2.3-4.7,1.7-6.6
	c-0.9-3.1-3.7-6-6.1-7.8c-8.1-5.9-20.5-3.1-27.9,2.6c-6.4,4.9-10.4,9.1-14.1,16.3c-4.3,8.1-4.9,19.2,0.9,26.8c2.4,3,5.5,5.4,9,7
	c3.6,1.5,7.4,2.1,11.3,1.8c7.5-0.7,14.7-4,21-8c3.7-2.4,6.6-5.5,10.1-8c0.6-0.1,0.5,0.6,0.3,1.1c-0.5,1.4-1.2,2.7-1.7,4.1
	c-0.2,0.6-0.3,1.3-0.2,1.9c0.1,0.7,0.3,1.3,0.7,1.8c1.1,1.8,3.8,4.3,5.9,3c1.4-0.8,2.5-2.4,3.6-3.6l9.3-10.6
	c0.4-0.5,0.8-0.9,1.3-1.2c0.4-0.3,0.7-0.5,1.1-0.7c0.1,0,0.1,0,0.2,0c0,0,0.1,0,0.1,0.1c0,0,0,0.1,0.1,0.1c0,1.3-0.2,2.6-0.6,3.8
	c-0.6,2.8-0.9,5.6-1,8.4c0,1.9,0.6,3.7,1.8,5.2s2.9,2.4,4.7,2.7c1.6,0.3,3.3-0.3,5.2-1.9c2.3-2.3,4.3-4.8,6.1-7.5
	c0.4-0.6,2.4-3.5,3.2-3.4c0.5,2.4,1.6,4.6,3.3,6.3c1.7,1.8,3.8,3,6.2,3.6c4.9,1.2,9.5-0.5,13.7-3.1c3.6-2.2,7-5,10.1-7.3
	c0.8-0.5,1.4-1.2,1.8-2C131.4,53.2,130.3,52,129.4,51.1z"/>
<path class="st0" d="M144.7,0.2c-2.6-0.5-5.4-0.1-7.7,1.2c-2.3,1.3-4.2,3.4-5.1,5.9c-0.9,2.5-1,5.3-0.1,7.8c0.9,2.5,2.7,4.7,5,6
	l0.1,0.1c0.3,0.2,0.6,0.5,0.8,0.8c0.2,0.3,0.3,0.7,0.3,1.1c0,0.2,0,0.4-0.1,0.6l-1.2,4.3c0,0.1,0,0.1,0,0.2c0,0.1,0,0.2,0.1,0.3
	c0.1,0.1,0.1,0.2,0.2,0.2c0.1,0,0.2,0.1,0.3,0.1c0.1,0,0.2,0,0.3-0.1l11.2-8c1.9-1.2,3.3-3,4.2-5.1c0.9-2.1,1.1-4.4,0.7-6.6
	c-0.4-2.2-1.5-4.2-3.1-5.8C149,1.7,147,0.6,144.7,0.2L144.7,0.2z"/>
</svg>
